<?xml version="1.0" encoding="utf-8"?>
<!-- Generator: Adobe Illustrator 27.0.0, SVG Export Plug-In . SVG Version: 6.00 Build 0)  -->
<svg version="1.1" id="Layer_1" xmlns="http://www.w3.org/2000/svg" xmlns:xlink="http://www.w3.org/1999/xlink" x="0px" y="0px"
	 viewBox="0 0 800 800" style="enable-background:new 0 0 800 800;" xml:space="preserve">
<style type="text/css">
	.st0{fill:#FFFFFF;}
</style>
<g>
	<path class="st0" d="M750,725c0-27.6-22.4-50-50-50h-25V312.5h75c22.4,0,42.1-14.9,48.2-36.5c6-21.6-3-44.6-22.2-56.2L426,7.3
		C418,2.4,409,0,400,0s-18,2.4-26,7.3L24,219.8C4.9,231.4-4.2,254.4,1.9,276c6,21.6,25.7,36.5,48.1,36.5h75V675h-25
		c-27.6,0-50,22.4-50,50c-27.6,0-50,22.4-50,50v25h800v-25C800,747.4,777.6,725,750,725z M650,675h-50V312.5h50V675z M225,312.5h50
		V675h-50V312.5z M300,312.5h50V675h-50V312.5z M375,312.5h50V675h-50V312.5z M450,312.5h50V675h-50V312.5z M525,312.5h50V675h-50
		V312.5z M50,287.5c-11.2,0-21.1-7.5-24.1-18.3c-3-10.7,1.5-22.3,11.1-28.1L387,28.6c3.9-2.4,8.4-3.6,13-3.6c4.6,0,9.1,1.2,13,3.6
		l350,212.5c9.5,5.8,14.1,17.3,11.1,28.1c-3,10.8-12.9,18.3-24.1,18.3H50z M150,312.5h50V675h-50V312.5z M100,700h600
		c13.8,0,25,11.2,25,25H75C75,711.2,86.2,700,100,700z M25,775c0-13.8,11.2-25,25-25h700c13.8,0,25,11.2,25,25H25z"/>
	<path class="st0" d="M400,112.5c-34.5,0-62.5,28-62.5,62.5s28,62.5,62.5,62.5s62.5-28,62.5-62.5S434.5,112.5,400,112.5z M400,212.5
		c-20.7,0-37.5-16.8-37.5-37.5s16.8-37.5,37.5-37.5c20.7,0,37.5,16.8,37.5,37.5S420.7,212.5,400,212.5z"/>
</g>
</svg>
