<?xml version="1.0" encoding="utf-8"?>
<!-- Generator: Adobe Illustrator 27.0.0, SVG Export Plug-In . SVG Version: 6.00 Build 0)  -->
<svg version="1.1" id="Слой_1" xmlns="http://www.w3.org/2000/svg" xmlns:xlink="http://www.w3.org/1999/xlink" x="0px" y="0px"
	 viewBox="0 0 387.9 387.9" style="enable-background:new 0 0 387.9 387.9;" xml:space="preserve">
<style type="text/css">
	.st0{fill:#FFFFFF;}
</style>
<path class="st0" d="M85.9,155.6c-39,0-71-32-71-71s32-71,71-71s71,32,71,71S124.9,155.6,85.9,155.6z M85.9,54.6c-16,0-29,13-29,29
	s13,29,29,29s29-13,29-29S101.9,54.6,85.9,54.6z M306.9,376.6c-39,0-71-32-71-71s32-71,71-71s71,32,71,71S346.9,376.6,306.9,376.6z
	 M306.9,275.6c-16,0-29,13-29,29c0,16,13,30,29,30s29-13,29-29C335.9,289.6,323.9,275.6,306.9,275.6z M35.9,376.6c-5,0-11-2-15-6
	c-8-8-8-21,0-30l322-322c8-8,21-8,30,0c8,8,8,21,0,30l-322,322C46.9,374.6,40.9,376.6,35.9,376.6L35.9,376.6z"/>
</svg>
