<?xml version="1.0" encoding="utf-8"?>
<!-- Generator: Adobe Illustrator 27.0.0, SVG Export Plug-In . SVG Version: 6.00 Build 0)  -->
<svg version="1.1" id="Layer_1" xmlns="http://www.w3.org/2000/svg" xmlns:xlink="http://www.w3.org/1999/xlink" x="0px" y="0px"
	 viewBox="0 0 122.9 101.6" style="enable-background:new 0 0 122.9 101.6;" xml:space="preserve">
<style type="text/css">
	.st0{fill-rule:evenodd;clip-rule:evenodd;fill:#FFFFFF;}
</style>
<g>
	<path class="st0" d="M26,88.3V49.9h17.3c7.3,1.3,14.7,5.3,22,9.9h13.4c6.1,0.4,9.3,6.5,3.4,10.6c-4.7,3.5-10.9,3.3-17.3,2.7
		c-4.4-0.2-4.6,5.7,0,5.7c1.6,0.1,3.3-0.2,4.8-0.2c7.9,0,14.5-1.5,18.5-7.8l2-4.7l20-9.9c10-3.3,17.1,7.2,9.7,14.4
		C105.4,81,90.5,89.7,75.4,96.7c-11,6.7-22,6.5-33.1,0L26,88.3L26,88.3L26,88.3z M92.4,27.7c2.1,0,3.7,0.6,5,1.8
		c1.2,1.2,1.9,2.7,1.9,4.7c0,1.9-0.6,3.5-1.9,4.7c-1.3,1.2-2.9,1.8-5,1.8s-3.7-0.6-5-1.8c-1.2-1.2-1.9-2.7-1.9-4.7
		c0-1.9,0.6-3.5,1.9-4.7C88.7,28.3,90.3,27.7,92.4,27.7L92.4,27.7L92.4,27.7z M82.8,0c15.8,0,28.5,12.8,28.5,28.5
		c0,15.8-12.8,28.5-28.5,28.5S54.3,44.3,54.3,28.5S67,0,82.8,0L82.8,0z M82.8,5.4c12.8,0,23.2,10.4,23.2,23.2S95.6,51.7,82.8,51.7
		c-12.8,0-23.2-10.4-23.2-23.2S70,5.4,82.8,5.4L82.8,5.4z M88.2,17.4h5.6L77.4,39.6h-5.6L88.2,17.4L88.2,17.4L88.2,17.4z M92.4,32.1
		c-0.6,0-1.1,0.2-1.4,0.5c-0.3,0.4-0.5,0.8-0.5,1.5c0,0.6,0.2,1.1,0.5,1.5c0.3,0.3,0.8,0.5,1.4,0.5c0.6,0,1.1-0.2,1.4-0.5
		c0.3-0.3,0.5-0.8,0.5-1.5c0-0.6-0.2-1.1-0.5-1.5C93.4,32.3,93,32.1,92.4,32.1L92.4,32.1L92.4,32.1z M73.2,21
		c-0.6,0-1.1,0.2-1.4,0.5c-0.3,0.3-0.5,0.8-0.5,1.5c0,0.6,0.2,1.1,0.5,1.5c0.3,0.3,0.8,0.5,1.4,0.5c0.6,0,1.1-0.2,1.4-0.5
		c0.3-0.4,0.5-0.8,0.5-1.5c0-0.6-0.2-1.1-0.5-1.5C74.2,21.2,73.8,21,73.2,21L73.2,21L73.2,21z M73.1,16.5c2.1,0,3.7,0.6,5,1.8
		C79.4,19.5,80,21,80,23c0,1.9-0.6,3.5-1.9,4.7c-1.3,1.2-2.9,1.8-5,1.8c-2.1,0-3.7-0.6-5-1.8c-1.2-1.2-1.9-2.7-1.9-4.7
		c0-1.9,0.6-3.5,1.9-4.7C69.4,17.1,71.1,16.5,73.1,16.5L73.1,16.5L73.1,16.5z M0,46.2h20.8v46H0V46.2L0,46.2z"/>
</g>
</svg>
