<?xml version="1.0" encoding="utf-8"?>
<!-- Generator: Adobe Illustrator 27.0.0, SVG Export Plug-In . SVG Version: 6.00 Build 0)  -->
<svg version="1.1" id="Layer_1" xmlns="http://www.w3.org/2000/svg" xmlns:xlink="http://www.w3.org/1999/xlink" x="0px" y="0px"
	 viewBox="0 0 117.2 122.9" style="enable-background:new 0 0 117.2 122.9;" xml:space="preserve">
<style type="text/css">
	.st0{fill:#FFFFFF;}
</style>
<g>
	<path class="st0" d="M13.6,0h94.3c2.5,0,4.9,1,6.5,2.7l0,0c1.7,1.7,2.7,4,2.7,6.5v95.8c0,2.5-1,4.9-2.7,6.5l0,0
		c-1.7,1.7-4,2.7-6.5,2.7h-9l-3.7,8.5H84.8l-3.9-8.5H43.2l-3.7,8.5H29l-3.9-8.5H13.6c-2.5,0-4.9-1-6.5-2.7l0,0
		c-1.7-1.7-2.7-4-2.7-6.5v-8.3h-2c-1.3,0-2.3-1-2.3-2.3V64.9c0-1.3,1-2.3,2.3-2.3h2V49.3h-2C1,49.3,0,48.3,0,47V17.5
		c0-1.3,1-2.3,2.3-2.3h2v-6c0-2.5,1-4.9,2.7-6.5l0,0C8.7,1,11.1,0,13.6,0L13.6,0z M50.7,35.1c0.6,1,0.2,2.4-0.8,3
		c-1,0.6-2.4,0.2-3-0.8l-2.9-5c-1.6,1.1-3.1,2.3-4.4,3.7s-2.6,2.8-3.7,4.4l5,2.9c1,0.6,1.4,2,0.8,3s-2,1.4-3,0.8l-5-2.9
		c-1.6,3.4-2.7,7.1-3,11.1h5.7c1.2,0,2.2,1,2.2,2.2s-1,2.2-2.2,2.2h-5.7c0.3,4,1.3,7.7,3,11.1l5-2.9c1-0.6,2.4-0.2,3,0.8
		c0.6,1.1,0.2,2.4-0.8,3l-5,2.9c1.1,1.6,2.3,3.1,3.7,4.4s2.8,2.6,4.4,3.7l2.9-5c0.6-1.1,2-1.4,3-0.8s1.4,1.9,0.8,3l-2.9,5
		c3.4,1.6,7.1,2.7,11.1,3v-5.8c0-1.2,1-2.2,2.2-2.2s2.2,1,2.2,2.2v5.7c3.9-0.3,7.7-1.3,11.1-3l-2.9-5c-0.6-1.1-0.2-2.4,0.8-3
		c1.1-0.6,2.4-0.2,3,0.8l2.9,5c1.6-1.1,3.1-2.3,4.4-3.7s2.6-2.8,3.7-4.4l-5-2.9c-1.1-0.6-1.4-1.9-0.8-3c0.6-1.1,1.9-1.4,3-0.8l5,2.9
		c1.7-3.4,2.7-7.1,3-11.1h-5.7c-1.2,0-2.2-1-2.2-2.2s1-2.2,2.2-2.2h5.7c-0.3-4-1.3-7.7-3-11.1l-5,2.9c-1.1,0.6-2.4,0.2-3-0.8
		c-0.6-1-0.2-2.4,0.8-3l5-2.9c-1.1-1.6-2.3-3.1-3.7-4.4c-1.4-1.4-2.8-2.6-4.4-3.7l-2.9,5c-0.6,1-1.9,1.4-3,0.8
		c-1.1-0.6-1.4-1.9-0.8-3l2.9-5c-3.4-1.6-7.1-2.7-11.1-3v5.7c0,1.2-1,2.2-2.2,2.2s-2.2-1-2.2-2.2v-5.7c-4,0.3-7.7,1.3-11.1,3
		L50.7,35.1L50.7,35.1z M8.7,62.6h2.2c1.3,0,2.3,1,2.3,2.3v29.5c0,1.3-1,2.3-2.3,2.3H8.7v8.3c0,1.3,0.6,2.6,1.4,3.4l0,0
		c0.9,0.9,2.1,1.4,3.4,1.4h94.3c1.3,0,2.6-0.6,3.4-1.4l0,0c0.9-0.9,1.4-2.1,1.4-3.4V9.3c0-1.3-0.6-2.6-1.4-3.4l0,0
		c-0.9-0.9-2.1-1.4-3.4-1.4H13.6c-1.3,0-2.6,0.6-3.4,1.4l0,0C9.3,6.7,8.7,7.9,8.7,9.3v6h2.2c1.3,0,2.3,1,2.3,2.3V47
		c0,1.3-1,2.3-2.3,2.3H8.7V62.6L8.7,62.6z M61.1,38.5c5.2,0,10,2.1,13.4,5.6s5.6,8.2,5.6,13.4c0,5.2-2.1,10-5.6,13.4
		c-3.4,3.4-8.2,5.6-13.4,5.6c-5.2,0-10-2.1-13.4-5.6c-3.4-3.4-5.6-8.2-5.6-13.4c0-5.2,2.1-10,5.6-13.4
		C51.1,40.6,55.9,38.5,61.1,38.5L61.1,38.5z M61.1,22.7c9.6,0,18.3,3.9,24.6,10.2s10.2,15,10.2,24.6S92,75.8,85.7,82.1
		c-6.3,6.3-15,10.2-24.6,10.2c-9.6,0-18.3-3.9-24.6-10.2c-6.3-6.3-10.2-15-10.2-24.6c0-9.6,3.9-18.3,10.2-24.6S51.5,22.7,61.1,22.7
		L61.1,22.7z"/>
</g>
</svg>
