<?xml version="1.0" encoding="UTF-8"?>
<svg id="_Слой_1" data-name="Слой 1" xmlns="http://www.w3.org/2000/svg" viewBox="0 0 587.49 240.47">
  <defs>
    <style>
      .cls-1 {
        font-family: Avenir-Light, Avenir;
        font-size: 79px;
        font-weight: 300;
        letter-spacing: .29em;
      }

      .cls-1, .cls-2 {
        fill: #1d1d1b;
      }

      .cls-2 {
        stroke: #1d1d1b;
        stroke-miterlimit: 10;
      }
    </style>
  </defs>
  <polygon class="cls-2" points="179.74 10.1 179.74 181.52 156.05 181.52 156.05 42.25 155.87 42.47 155.87 41.85 40.99 181.86 9.96 181.86 9.63 181.58 150.32 10.1 154.94 10.1 156.05 11.01 156.05 10.1 179.74 10.1"/>
  <polygon class="cls-2" points="423.73 10.4 324.47 123.64 305.23 123.42 205.34 10.4 236.77 10.4 314.85 97.84 392.47 10.4 423.73 10.4"/>
  <path class="cls-2" d="M582.47,34.43s-32.06-24.96-69.28-23.53c-54.59-2.17-97.74,43.96-97.74,43.96,0,0-32.62,33.44-36.61,70.44s1.17,56.27,1.17,56.27h24.31s-4.37-25.4-2.31-42.12,9.67-40.02,16.46-50.15c8.86-13.23,35.94-40.53,64.56-49.64,59.44-18.93,99.44,25.72,99.44,25.72v-30.95Z"/>
  <text class="cls-1" transform="translate(9.63 234.89) scale(1 .45)"><tspan x="0" y="0">AMC BANK</tspan></text>
</svg>