<?xml version="1.0" encoding="utf-8"?>
<!-- Generator: Adobe Illustrator 27.0.0, SVG Export Plug-In . SVG Version: 6.00 Build 0)  -->
<svg version="1.1"
	 id="Слой_1" image-rendering="optimizeQuality" shape-rendering="geometricPrecision" text-rendering="geometricPrecision"
	 xmlns="http://www.w3.org/2000/svg" xmlns:xlink="http://www.w3.org/1999/xlink" x="0px" y="0px" viewBox="0 0 500 512.1"
	 style="enable-background:new 0 0 500 512.1;" xml:space="preserve">
<style type="text/css">
	.st0{fill:#FFFFFF;}
</style>
<path class="st0" d="M36.1,176.8C48.4,129,75.3,86.9,112,55.8C150.7,23,200.4,2.3,255.1,0.2c65-2.5,124.9,21.5,169.2,62.5
	c44.3,40.9,73,98.8,75.5,163.8c1,24.4-1.8,48-7.7,70.2c-4.8,18-11.8,35.3-20.7,51.6c-8.2-12.7-21-21.6-35.8-24.8
	c6.1-12,11.1-24.7,14.7-38c4.9-18.3,7.2-37.6,6.4-57.4c-2.1-53.1-25.5-100.4-61.6-133.8c-36.1-33.4-85.1-53-138.2-51
	c-44.7,1.8-85.2,18.6-116.9,45.5C111,113.4,89.5,146.3,79,183.6l19,3c6.2,0.9,10.4,6.7,9.4,12.9c-0.4,2.7-1.8,5-3.7,6.7l-50.6,45.1
	c-4.7,4.1-11.8,3.7-16-0.9c-0.7-0.8-1.3-1.6-1.7-2.5L1.5,190c-3.2-5.4-1.3-12.3,4-15.5c2.4-1.4,5-1.8,7.6-1.4L36.1,176.8z
	 M109.7,464.5v-137c67.6,0,79.1-3,140,35.3h47.9c21.7,1.3,33,23.3,12,37.7c-16.8,12.3-38.9,11.6-61.6,9.6
	c-15.7-0.8-16.3,20.3,0,20.3c5.7,0.4,11.8-0.9,17.2-0.9c28.3,0,51.6-5.5,65.9-27.8l7.2-16.7l71.2-35.3c35.6-11.7,61,25.5,34.7,51.5
	c-51.6,37.5-104.4,68.4-158.5,93.3c-39.3,23.9-78.6,23.1-117.8,0L109.7,464.5L109.7,464.5z M4.2,314.4h86.9v163.9H4.2V314.4z
	 M257.2,337.6c-14.9-13.5-16.6-36.4-3.5-51.9c13.3-15.9,37-17.9,52.9-4.6c15.9,13.3,17.9,37,4.6,52.9c-1.5,1.8-3.2,3.4-5,4.9
	C290.3,335.7,272.8,337.6,257.2,337.6L257.2,337.6z M157,302.6L197.3,113l161,36.2l-4.5,21.4l-115-25.9l-1.5-0.4
	c-11.2-2.4-22.2,4.7-24.5,15.9l-2.2,10.3l-0.3-0.1L200,219.8l-18.1,85.1C174.1,303.6,166.1,302.9,157,302.6L157,302.6z M197.7,308.4
	L229.5,159l161,36.2L358.2,347l-20.9,10.4c-1.8-2.4-3.9-4.6-6.1-6.7l22.4-109.2c-13.1-2.9-21.4-16-18.5-29.1l-63.7-14.3
	c-2.9,13.1-16,21.4-29.1,18.5l-20.8,101.3C213,313.7,205.2,310.6,197.7,308.4L197.7,308.4z"/>
</svg>
