<?xml version="1.0" encoding="utf-8"?>
<!-- Generator: Adobe Illustrator 27.0.0, SVG Export Plug-In . SVG Version: 6.00 Build 0)  -->
<svg version="1.1" id="Слой_1" xmlns="http://www.w3.org/2000/svg" xmlns:xlink="http://www.w3.org/1999/xlink" x="0px" y="0px"
	 viewBox="0 0 695.1 631.6" style="enable-background:new 0 0 695.1 631.6;" xml:space="preserve">
<style type="text/css">
	.st0{fill:#FFFFFF;}
</style>
<g id="icomoon-ignore">
</g>
<path class="st0" d="M344.7,195.2c-60.7,0-110.7,45.9-117.2,104.9h-27v26.2h27c6.5,59,56.5,104.9,117.3,104.9
	c65.2,0,118-52.8,118-118S409.9,195.2,344.7,195.2L344.7,195.2z M344.7,405c-46.1,0-84.3-34.3-90.8-78.7h90.8v-26.2h-90.8
	c6.4-44.4,44.6-78.7,90.8-78.7c50.6,0,91.8,41.2,91.8,91.8S395.3,405.1,344.7,405L344.7,405z"/>
<path class="st0" d="M95.5,432.9v-78.7H69.3v104.9h26.2V432.9z"/>
<path class="st0" d="M95.5,247.7V169H69.3v104.9h26.2V247.7z"/>
<path class="st0" d="M121.7,90.3v445.9h445.8V90.3H121.7L121.7,90.3z M541.3,509.9H148V116.6h393.4V509.9L541.3,509.9z"/>
<path class="st0" d="M16.8,11.6v603.2h655.7V11.6L16.8,11.6L16.8,11.6z M646.3,588.6H43.1V37.9h603.2V588.6L646.3,588.6z"/>
</svg>
