<?xml version="1.0" encoding="UTF-8"?>
<svg id="_Слой_1" data-name="Слой 1" xmlns="http://www.w3.org/2000/svg" viewBox="0 0 32 32">
  <defs>
    <style>
      .cls-1 {
        fill: #fff;
      }

      .cls-2 {
        fill: #252e5e;
      }
    </style>
  </defs>
  <rect class="cls-2" width="32" height="32"/>
  <polygon class="cls-1" points="9.65 10 9.65 21.98 8.37 21.98 8.37 12.25 8.36 12.26 8.36 12.22 2.11 22 .42 22 .4 21.98 8.05 10 8.31 10 8.37 10.06 8.37 10 9.65 10"/>
  <polygon class="cls-1" points="22.92 10.02 17.52 17.93 16.48 17.92 11.05 10.02 12.76 10.02 17 16.13 21.22 10.02 22.92 10.02"/>
  <path class="cls-1" d="M31.55,11.7s-1.74-1.74-3.77-1.64c-2.97-.15-5.31,3.07-5.31,3.07,0,0-1.77,2.34-1.99,4.92s.06,3.93,.06,3.93h1.32s-.24-1.77-.13-2.94,.53-2.8,.9-3.5c.48-.92,1.95-2.83,3.51-3.47,3.23-1.32,5.41,1.8,5.41,1.8v-2.16Z"/>
</svg>