<?xml version="1.0" encoding="UTF-8"?>
<svg id="_Слой_1" data-name="Слой 1" xmlns="http://www.w3.org/2000/svg" viewBox="0 0 32 12">
  <defs>
    <style>
      .cls-1 {
        fill: #1d1d1b;
      }
    </style>
  </defs>
  <polygon class="cls-1" points="9.5 0 9.5 11.98 8.18 11.98 8.18 2.25 8.17 2.26 8.17 2.22 1.75 12 .02 12 0 11.98 7.86 0 8.12 0 8.18 .06 8.18 0 9.5 0"/>
  <polygon class="cls-1" points="23.13 .02 17.59 7.93 16.51 7.92 10.93 .02 12.69 .02 17.05 6.13 21.39 .02 23.13 .02"/>
  <path class="cls-1" d="M32,1.7S30.21-.04,28.13,.06c-3.05-.15-5.46,3.07-5.46,3.07,0,0-1.82,2.34-2.05,4.92s.07,3.93,.07,3.93h1.36s-.24-1.77-.13-2.94,.54-2.8,.92-3.5c.49-.92,2.01-2.83,3.61-3.47,3.32-1.32,5.55,1.8,5.55,1.8V1.7Z"/>
</svg>